<?xml version="1.0" standalone="no"?>
<!DOCTYPE svg PUBLIC "-//W3C//DTD SVG 20010904//EN"
 "http://www.w3.org/TR/2001/REC-SVG-20010904/DTD/svg10.dtd">
<svg version="1.0" xmlns="http://www.w3.org/2000/svg"
 width="317.000000pt" height="548.000000pt" viewBox="0 0 317.000000 548.000000"
 preserveAspectRatio="xMidYMid meet">

<g transform="translate(0.000000,548.000000) scale(0.100000,-0.100000)"
fill="#000000" stroke="none">
<path d="M300 3085 l0 -1565 567 -2 568 -3 -285 -104 c-157 -57 -292 -107
-300 -112 -8 -5 268 -9 624 -9 352 0 637 2 634 5 -2 3 -139 54 -304 115 l-299
109 573 1 572 0 0 1565 0 1565 -1175 0 -1175 0 0 -1565z m2340 0 l0 -1555
-1165 0 -1165 0 0 1555 0 1555 1165 0 1165 0 0 -1555z m-782 -1707 l202 -73
-289 -3 c-159 -1 -422 -1 -585 0 l-295 3 292 106 292 106 90 -33 c50 -18 181
-66 293 -106z"/>
<path d="M1316 4546 c-126 -53 -208 -175 -208 -309 0 -61 -3 -75 -22 -90 l-21
-18 23 11 c21 10 24 8 38 -27 9 -21 30 -57 47 -81 l30 -42 -24 -27 c-24 -26
-10 -23 22 4 15 12 22 10 60 -16 64 -45 163 -67 236 -52 152 30 256 134 283
282 10 51 1 143 -16 170 -3 5 14 31 38 58 47 53 84 111 70 111 -5 0 -19 -11
-32 -25 -12 -13 -40 -36 -62 -51 l-39 -27 -52 50 c-76 75 -125 96 -227 100
-73 3 -93 0 -144 -21z m81 -111 c28 -14 73 -50 101 -79 28 -29 58 -56 67 -60
9 -3 15 -11 13 -18 -1 -7 6 -29 16 -48 l19 -35 13 44 c24 81 63 83 93 5 27
-72 27 -74 -9 -74 -20 0 -30 5 -30 15 0 8 -9 15 -20 15 -11 0 -20 -7 -20 -15
0 -8 -5 -15 -11 -15 -5 0 -7 -5 -4 -10 11 -18 8 -90 -5 -105 -7 -8 -24 -15
-39 -14 -24 1 -23 2 8 10 33 10 33 11 28 57 -8 73 -24 100 -42 72 -3 -5 -26
-10 -51 -10 -28 0 -43 4 -39 10 3 6 17 10 31 10 14 0 24 6 24 15 0 7 8 19 18
24 9 6 12 11 7 11 -6 0 -16 -5 -22 -11 -6 -6 -21 -9 -34 -7 -33 4 -34 57 -1
74 22 11 21 13 -43 72 -68 65 -123 89 -156 71 -26 -13 -25 -77 2 -140 21 -48
39 -57 39 -18 0 17 6 20 32 17 29 -3 34 -9 55 -63 13 -32 23 -61 23 -62 0 -2
-16 -3 -36 -3 -31 0 -35 -2 -24 -15 8 -10 9 -15 1 -15 -6 0 -16 9 -23 20 -9
14 -19 18 -36 13 -21 -5 -23 -3 -17 17 8 24 -21 100 -38 100 -5 0 -8 -25 -5
-60 4 -58 3 -60 -19 -60 -16 0 -30 10 -41 30 -22 38 -36 38 -28 0 4 -22 2 -30
-8 -30 -10 0 -15 18 -18 65 l-3 65 28 0 c20 0 33 -9 48 -32 l21 -33 -4 33 c-4
26 -1 32 15 32 14 0 17 5 13 17 -4 9 -10 37 -13 60 -4 34 -2 48 12 63 24 26
51 25 112 -5z m49 -319 c22 -17 11 -35 -13 -20 -19 12 -29 34 -16 34 5 0 18
-6 29 -14z"/>
<path d="M1520 4271 c0 -10 30 -24 37 -17 3 3 2 9 -2 15 -8 13 -35 15 -35 2z"/>
<path d="M1366 4241 c-4 -7 -5 -15 -2 -18 9 -9 19 4 14 18 -4 11 -6 11 -12 0z"/>
<path d="M1650 4235 c0 -8 4 -15 10 -15 5 0 7 7 4 15 -4 8 -8 15 -10 15 -2 0
-4 -7 -4 -15z"/>
<path d="M1375 4190 c3 -5 8 -10 11 -10 2 0 4 5 4 10 0 6 -5 10 -11 10 -5 0
-7 -4 -4 -10z"/>
<path d="M1452 3685 c-16 -14 -32 -37 -35 -52 -6 -34 16 -91 43 -110 19 -13
19 -15 -10 -41 -19 -17 -31 -40 -34 -62 -3 -19 -9 -53 -15 -75 -14 -54 -14
-65 3 -65 7 0 17 -10 21 -22 l7 -23 7 25 c7 25 7 25 143 28 124 2 137 1 141
-15 4 -14 5 -13 6 4 2 31 -15 37 -94 35 -38 -1 -83 2 -100 7 -24 7 -11 9 61
10 74 1 93 4 98 17 16 42 11 44 -114 44 -119 0 -120 0 -120 23 0 47 26 57 148
57 105 0 112 1 112 20 0 18 -7 20 -67 20 -141 1 -193 27 -193 95 0 56 21 65
148 65 105 0 112 1 112 20 0 19 -7 20 -119 20 -113 0 -121 -1 -149 -25z m236
-322 c-3 -16 -17 -18 -105 -21 -94 -2 -103 -1 -113 18 -10 20 -8 20 105 20
106 0 116 -2 113 -17z m-258 -8 c10 -12 10 -15 -4 -15 -9 0 -16 7 -16 15 0 8
2 15 4 15 2 0 9 -7 16 -15z m30 -35 c0 -5 -11 -10 -25 -10 -14 0 -25 -5 -25
-12 0 -6 -2 -9 -5 -6 -3 3 -3 13 1 22 7 17 54 23 54 6z"/>
<path d="M1819 3322 c9 -7 10 -11 2 -15 -7 -4 -8 -5 0 -3 15 2 13 20 -3 24
-10 3 -10 2 1 -6z"/>
<path d="M1711 3233 c-1 -23 -3 -23 -140 -23 -102 0 -141 3 -144 13 -3 7 -6 5
-6 -5 -1 -16 12 -18 144 -18 119 0 147 3 151 15 3 8 4 20 1 27 -3 7 -6 3 -6
-9z"/>
<path d="M1818 3203 c7 -3 16 -2 19 1 4 3 -2 6 -13 5 -11 0 -14 -3 -6 -6z"/>
<path d="M1654 3121 c-27 -15 -84 -49 -126 -75 -64 -40 -83 -48 -108 -42 -26
5 -31 3 -28 -12 7 -35 61 -27 135 21 79 50 106 65 81 45 -13 -11 -15 -24 -11
-55 4 -29 1 -48 -11 -64 -21 -31 -20 -77 2 -102 19 -23 15 -21 -64 29 -61 39
-134 50 -134 19 0 -11 7 -13 28 -9 23 5 52 -9 152 -70 68 -42 129 -76 135 -76
7 0 19 8 28 18 14 16 17 44 17 186 0 217 -9 235 -96 187z m16 -26 c0 -2 -10
-9 -22 -15 -22 -11 -22 -10 -4 4 21 17 26 19 26 11z m-20 -301 c0 -2 -9 0 -20
6 -11 6 -20 13 -20 16 0 2 9 0 20 -6 11 -6 20 -13 20 -16z m70 -19 c-16 -19
-21 -19 -46 1 -18 14 -18 14 6 3 20 -10 26 -9 34 4 6 9 12 14 15 12 2 -3 -2
-11 -9 -20z"/>
<path d="M1120 3045 c0 -8 9 -15 20 -15 11 0 20 7 20 15 0 8 -9 15 -20 15 -11
0 -20 -7 -20 -15z"/>
<path d="M1202 3023 c2 -10 10 -18 18 -18 8 0 16 8 18 18 2 12 -3 17 -18 17
-15 0 -20 -5 -18 -17z"/>
<path d="M1303 3003 c-18 -7 -16 -53 3 -60 8 -3 22 1 30 9 24 24 -1 62 -33 51z"/>
<path d="M1201 2967 c-14 -17 3 -41 23 -34 9 4 16 13 16 21 0 19 -26 28 -39
13z"/>
<path d="M1283 2923 c-21 -8 -15 -43 6 -43 11 0 23 5 27 11 8 14 -17 38 -33
32z"/>
<path d="M1528 2680 c-69 -21 -108 -73 -108 -146 0 -37 6 -60 23 -84 85 -125
287 -70 287 79 0 55 -27 110 -64 131 -23 13 -28 13 -36 0 -7 -11 -3 -20 14
-35 51 -43 61 -113 24 -161 l-23 -29 -6 90 -5 90 -2 -87 -2 -88 -40 0 c-22 0
-40 5 -40 10 0 6 -7 10 -15 10 -12 0 -15 16 -15 85 0 50 4 85 10 85 6 0 10 -7
10 -15 0 -17 9 -19 28 -6 15 9 13 73 -3 77 -5 1 -22 -1 -37 -6z m-18 -145 c0
-69 3 -86 18 -94 11 -7 12 -11 4 -11 -8 0 -27 13 -43 29 -23 24 -29 38 -29 73
0 42 21 88 41 88 5 0 9 -38 9 -85z"/>
<path d="M1590 2620 c0 -5 5 -10 11 -10 5 0 7 5 4 10 -3 6 -8 10 -11 10 -2 0
-4 -4 -4 -10z"/>
<path d="M1828 2623 c7 -3 16 -2 19 1 4 3 -2 6 -13 5 -11 0 -14 -3 -6 -6z"/>
<path d="M1808 2483 c7 -3 16 -2 19 1 4 3 -2 6 -13 5 -11 0 -14 -3 -6 -6z"/>
<path d="M1503 2310 c-58 -30 -83 -73 -83 -142 0 -37 5 -60 15 -68 28 -24 15
-30 -65 -30 -57 0 -80 4 -80 13 0 17 -20 -14 -20 -32 0 -11 3 -11 15 -1 19 16
30 7 21 -16 -4 -10 -13 -14 -26 -11 -11 3 -20 1 -20 -4 0 -5 11 -9 24 -9 13 0
27 -7 30 -16 4 -9 9 -14 13 -11 3 4 0 14 -8 24 -12 15 -12 16 4 10 9 -3 17 -2
17 4 0 6 73 9 209 7 115 -2 207 0 204 5 -2 4 -8 7 -13 7 -6 0 -18 7 -29 16
-19 16 -19 17 0 48 76 124 -75 273 -208 206z m114 -35 c12 -3 34 -20 48 -36
33 -41 33 -91 -1 -136 -24 -31 -28 -33 -87 -33 -69 0 -75 3 -100 42 -20 32
-22 76 -5 114 13 28 82 66 108 59 8 -2 25 -6 37 -10z"/>
<path d="M1290 2109 c0 -5 5 -7 10 -4 6 3 10 8 10 11 0 2 -4 4 -10 4 -5 0 -10
-5 -10 -11z"/>
<path d="M1815 1980 c3 -5 8 -10 11 -10 2 0 4 5 4 10 0 6 -5 10 -11 10 -5 0
-7 -4 -4 -10z"/>
<path d="M1306 1954 c-3 -9 -6 -18 -6 -20 0 -7 419 -4 423 4 3 4 -89 6 -204 4
-184 -2 -208 -1 -203 13 3 8 4 15 1 15 -3 0 -8 -7 -11 -16z"/>
</g>
</svg>
