<?xml version="1.0" standalone="no"?>
<!DOCTYPE svg PUBLIC "-//W3C//DTD SVG 20010904//EN"
 "http://www.w3.org/TR/2001/REC-SVG-20010904/DTD/svg10.dtd">
<svg version="1.0" xmlns="http://www.w3.org/2000/svg"
 width="317.000000pt" height="548.000000pt" viewBox="0 0 317.000000 548.000000"
 preserveAspectRatio="xMidYMid meet">

<g transform="translate(0.000000,548.000000) scale(0.100000,-0.100000)"
fill="#000000" stroke="none">
<path d="M1130 3239 c-129 -38 -252 -74 -272 -80 l-38 -10 0 -319 0 -320 280
0 280 0 0 400 c0 220 -3 400 -7 399 -5 0 -114 -32 -243 -70z m240 -334 l0
-385 -270 0 -270 0 0 308 0 309 258 76 c141 41 263 76 270 76 9 1 12 -82 12
-384z"/>
<path d="M1790 2911 l0 -401 280 0 280 0 0 320 c0 176 -1 320 -3 320 -4 0
-506 145 -539 156 -17 5 -18 -18 -18 -395z m298 299 l252 -73 0 -309 0 -308
-270 0 -270 0 0 386 c0 363 1 386 18 382 9 -3 131 -38 270 -78z"/>
</g>
</svg>
