<?xml version="1.0" standalone="no"?>
<!DOCTYPE svg PUBLIC "-//W3C//DTD SVG 20010904//EN"
 "http://www.w3.org/TR/2001/REC-SVG-20010904/DTD/svg10.dtd">
<svg version="1.0" xmlns="http://www.w3.org/2000/svg"
 width="428.000000pt" height="510.000000pt" viewBox="0 0 428.000000 510.000000"
 preserveAspectRatio="xMidYMid meet">

<g transform="translate(0.000000,510.000000) scale(0.100000,-0.100000)"
fill="#000000" stroke="none">
<path d="M1110 3365 c-437 -68 -798 -124 -802 -124 -5 -1 -8 -172 -8 -380 l0
-379 27 -6 c28 -5 1600 -246 1609 -246 2 0 4 284 4 630 0 594 -1 630 -17 629
-10 -1 -376 -57 -813 -124z"/>
<path d="M2430 2860 c0 -346 2 -630 5 -630 6 0 1560 238 1603 245 l32 6 0 379
0 379 -32 6 c-41 7 -1597 245 -1604 245 -2 0 -4 -283 -4 -630z"/>
</g>
</svg>
