<?xml version="1.0" standalone="no"?>
<!DOCTYPE svg PUBLIC "-//W3C//DTD SVG 20010904//EN"
 "http://www.w3.org/TR/2001/REC-SVG-20010904/DTD/svg10.dtd">
<svg version="1.0" xmlns="http://www.w3.org/2000/svg"
 width="317.000000pt" height="548.000000pt" viewBox="0 0 317.000000 548.000000"
 preserveAspectRatio="xMidYMid meet">

<g transform="translate(0.000000,548.000000) scale(0.100000,-0.100000)"
fill="#000000" stroke="none">
<path d="M930 2855 l0 -1565 353 -1 352 -1 -230 -113 -230 -113 490 0 490 0
-230 113 -230 113 358 1 357 1 0 1565 0 1565 -740 0 -740 0 0 -1565z m1470 0
l0 -1555 -730 0 -730 0 0 1555 0 1555 730 0 730 0 0 -1555z m-375 -1741 l90
-43 -450 0 -450 0 165 79 c91 44 192 92 225 108 l59 29 136 -65 c74 -35 176
-84 225 -108z"/>
<path d="M1510 4318 c-36 -14 -74 -40 -111 -77 -70 -70 -99 -141 -99 -241 0
-55 -4 -71 -17 -80 -16 -10 -16 -10 2 -6 16 5 24 -4 43 -49 13 -29 32 -61 43
-71 23 -20 25 -52 4 -60 -8 -4 -15 -11 -15 -17 0 -6 11 0 25 13 23 22 26 22
43 7 28 -25 123 -65 173 -72 96 -14 235 44 299 125 67 85 93 200 68 296 l-14
51 43 48 c46 50 80 105 65 105 -5 0 -19 -11 -32 -25 -12 -13 -40 -36 -62 -51
l-38 -27 -45 46 c-68 71 -133 100 -235 104 -69 3 -95 -1 -140 -19z m70 -109
c57 -26 181 -144 197 -188 18 -52 30 -58 38 -19 9 40 32 68 57 68 10 0 18 -1
18 -3 0 -2 11 -31 24 -65 l25 -62 -35 0 c-24 0 -34 5 -34 15 0 8 -9 15 -19 15
-23 0 -34 -36 -26 -88 4 -28 3 -32 -4 -17 -5 11 -12 31 -15 45 -10 42 -23 57
-38 42 -14 -14 -102 -17 -93 -2 3 6 17 10 31 10 14 0 24 6 24 15 0 7 8 19 18
24 9 6 14 11 9 11 -4 0 -16 -6 -27 -12 -15 -10 -25 -10 -38 -2 -24 16 -22 56
4 69 l22 11 -27 31 c-63 76 -153 124 -192 102 -25 -13 -25 -63 2 -134 22 -58
39 -72 39 -30 0 22 4 25 33 25 30 0 34 -4 51 -52 10 -29 21 -59 23 -65 4 -9
-5 -13 -27 -13 -24 0 -31 -4 -26 -15 8 -22 -12 -18 -26 5 -9 13 -19 18 -35 14
-24 -6 -29 2 -14 24 5 9 1 30 -12 55 l-21 42 -6 -38 c-4 -21 -5 -49 -2 -63 4
-20 1 -24 -22 -24 -19 0 -32 9 -46 33 l-20 32 0 -32 c0 -22 -5 -33 -14 -33
-11 0 -15 17 -18 65 l-3 65 33 0 c17 0 32 -4 32 -8 0 -5 7 -17 16 -28 15 -18
15 -18 11 9 -3 22 0 27 16 27 15 0 18 5 13 23 -18 59 -18 87 -2 112 20 30 46
31 106 4z m56 -323 c22 -17 11 -35 -13 -20 -19 12 -29 34 -16 34 5 0 18 -6 29
-14z m174 -61 c-7 -8 -24 -14 -39 -14 l-26 2 25 4 c14 3 29 9 35 14 15 15 19
10 5 -6z"/>
<path d="M1724 4035 c21 -16 32 -13 21 4 -3 6 -14 11 -23 11 -15 -1 -15 -2 2
-15z"/>
<path d="M1556 4011 c-4 -7 -5 -15 -2 -18 9 -9 19 4 14 18 -4 11 -6 11 -12 0z"/>
<path d="M1840 4006 c0 -9 5 -16 10 -16 6 0 10 4 10 9 0 6 -4 13 -10 16 -5 3
-10 -1 -10 -9z"/>
<path d="M1565 3960 c3 -5 8 -10 11 -10 2 0 4 5 4 10 0 6 -5 10 -11 10 -5 0
-7 -4 -4 -10z"/>
<path d="M1641 3454 c-26 -22 -31 -33 -31 -70 0 -34 6 -51 29 -76 l28 -32 -28
-24 c-20 -16 -29 -33 -29 -54 0 -16 -4 -37 -9 -46 -5 -9 -12 -36 -16 -59 -5
-35 -4 -43 8 -43 19 0 29 -25 21 -56 l-6 -24 138 2 139 2 -133 3 -132 4 6 27
c3 15 7 33 10 40 2 9 39 12 138 12 120 0 135 -2 139 -17 4 -14 5 -13 6 4 1 13
-8 27 -19 33 -17 9 -20 17 -14 46 l6 34 -121 0 c-120 0 -121 0 -121 23 0 47
26 57 148 57 105 0 112 1 112 20 0 18 -7 20 -67 20 -141 1 -193 27 -193 95 0
56 21 65 148 65 105 0 112 1 112 20 0 19 -7 20 -119 20 -114 0 -121 -1 -150
-26z m237 -321 c-3 -16 -16 -18 -108 -18 -92 0 -105 2 -108 18 -3 15 7 17 108
17 101 0 111 -2 108 -17z m-254 -8 c3 -9 0 -15 -9 -15 -8 0 -15 7 -15 15 0 8
4 15 9 15 5 0 11 -7 15 -15z m26 -35 c0 -5 -11 -10 -25 -10 -14 0 -25 -5 -25
-12 0 -6 -2 -9 -5 -6 -3 3 -3 13 1 22 7 17 54 23 54 6z m220 0 c0 -12 -113
-12 -150 0 -17 5 3 8 63 9 52 1 87 -3 87 -9z"/>
<path d="M2009 3092 c9 -7 10 -11 2 -15 -7 -4 -8 -5 0 -3 15 2 13 20 -3 24
-10 3 -10 2 1 -6z"/>
<path d="M1898 2995 c-3 -14 -1 -25 3 -25 5 0 9 11 9 25 0 14 -2 25 -4 25 -2
0 -6 -11 -8 -25z"/>
<path d="M2008 2973 c7 -3 16 -2 19 1 4 3 -2 6 -13 5 -11 0 -14 -3 -6 -6z"/>
<path d="M1845 2891 c-28 -15 -85 -49 -127 -75 -63 -40 -83 -47 -108 -43 -22
5 -30 3 -30 -7 0 -15 21 -26 50 -26 11 0 61 26 112 58 104 66 138 85 138 78 0
-3 -22 -17 -50 -33 -49 -27 -49 -28 -43 -69 4 -29 1 -49 -12 -67 -9 -15 -15
-40 -13 -58 3 -28 12 -39 65 -72 34 -21 67 -36 73 -32 15 10 13 317 -2 335
-11 12 -10 12 5 1 15 -12 17 -32 17 -166 0 -156 -4 -185 -23 -185 -6 0 -60 31
-121 69 -99 62 -136 76 -183 72 -7 -1 -13 -8 -13 -16 0 -11 7 -13 28 -9 23 5
52 -8 152 -70 69 -42 129 -76 136 -76 6 0 18 8 28 19 14 16 16 41 14 196 -3
165 -4 179 -23 191 -17 11 -26 10 -70 -15z"/>
<path d="M1310 2816 c0 -15 24 -28 34 -19 13 14 5 33 -14 33 -11 0 -20 -6 -20
-14z"/>
<path d="M1401 2811 c-15 -10 -8 -41 9 -41 15 0 25 29 14 40 -5 5 -15 5 -23 1z"/>
<path d="M1493 2773 c-19 -7 -16 -50 3 -57 19 -7 44 10 44 30 0 16 -30 33 -47
27z"/>
<path d="M1397 2744 c-16 -16 -7 -44 14 -44 15 0 20 5 17 22 -3 22 -19 33 -31
22z"/>
<path d="M1473 2693 c-21 -8 -15 -43 6 -43 11 0 23 5 27 11 8 14 -17 38 -33
32z"/>
<path d="M1720 2451 c-69 -21 -110 -78 -110 -153 0 -56 29 -102 79 -128 110
-56 231 13 231 132 0 58 -19 99 -59 127 -28 20 -30 20 -40 4 -7 -14 -3 -23 21
-43 25 -21 31 -35 35 -75 4 -42 1 -55 -19 -80 l-23 -30 -6 90 -5 90 -2 -87 -2
-88 -40 0 -40 0 0 80 c0 62 3 82 15 86 10 4 15 20 15 45 0 41 -4 44 -50 30z
m10 -137 c0 -61 -4 -93 -10 -89 -11 7 -14 168 -3 178 12 13 13 7 13 -89z m-30
-9 c0 -69 3 -86 18 -94 11 -7 12 -11 4 -11 -8 0 -27 14 -44 30 -28 28 -30 36
-26 80 5 47 21 80 39 80 5 0 9 -38 9 -85z"/>
<path d="M1780 2396 c0 -9 5 -16 10 -16 6 0 10 4 10 9 0 6 -4 13 -10 16 -5 3
-10 -1 -10 -9z"/>
<path d="M2018 2393 c7 -3 16 -2 19 1 4 3 -2 6 -13 5 -11 0 -14 -3 -6 -6z"/>
<path d="M1998 2253 c7 -3 16 -2 19 1 4 3 -2 6 -13 5 -11 0 -14 -3 -6 -6z"/>
<path d="M1705 2086 c-56 -25 -88 -70 -93 -130 -4 -45 0 -60 18 -85 l21 -31
-85 0 c-62 0 -86 3 -86 13 0 17 -20 -14 -20 -32 0 -11 3 -11 15 -1 19 16 30 7
21 -16 -4 -10 -13 -14 -26 -11 -11 3 -20 1 -20 -4 0 -5 11 -9 25 -9 13 0 28
-8 34 -17 8 -15 10 -14 16 10 l7 28 208 -3 c115 -2 206 0 203 5 -2 4 -8 7 -13
7 -6 0 -19 8 -30 17 -18 16 -19 18 -2 36 12 14 17 37 17 82 0 57 -3 67 -30 96
-53 56 -119 72 -180 45z m105 -42 c71 -29 92 -109 44 -171 -24 -31 -28 -33
-89 -33 -61 0 -65 2 -89 33 -47 61 -26 142 43 171 46 19 43 19 91 0z m-290
-264 c0 -5 -2 -10 -4 -10 -3 0 -8 5 -11 10 -3 6 -1 10 4 10 6 0 11 -4 11 -10z"/>
<path d="M2015 1920 c-3 -5 -1 -10 4 -10 6 0 11 5 11 10 0 6 -2 10 -4 10 -3 0
-8 -4 -11 -10z"/>
<path d="M1480 1879 c0 -5 5 -7 10 -4 6 3 10 8 10 11 0 2 -4 4 -10 4 -5 0 -10
-5 -10 -11z"/>
<path d="M2005 1750 c3 -5 8 -10 11 -10 2 0 4 5 4 10 0 6 -5 10 -11 10 -5 0
-7 -4 -4 -10z"/>
<path d="M1497 1727 c-4 -10 -7 -21 -7 -23 0 -2 97 -4 215 -4 118 0 215 3 215
8 0 4 -92 6 -204 4 -190 -3 -205 -1 -208 15 -3 17 -4 17 -11 0z"/>
</g>
</svg>
