<?xml version="1.0" standalone="no"?>
<!DOCTYPE svg PUBLIC "-//W3C//DTD SVG 20010904//EN"
 "http://www.w3.org/TR/2001/REC-SVG-20010904/DTD/svg10.dtd">
<svg version="1.0" xmlns="http://www.w3.org/2000/svg"
 width="317.000000pt" height="548.000000pt" viewBox="0 0 317.000000 548.000000"
 preserveAspectRatio="xMidYMid meet">

<g transform="translate(0.000000,548.000000) scale(0.100000,-0.100000)"
fill="#000000" stroke="none">
<path d="M1110 2855 l0 -1565 227 -2 227 -3 -144 -110 -143 -110 157 -3 c87
-1 225 -1 308 0 l151 3 -142 108 c-78 60 -144 107 -146 105 -3 -2 48 -44 112
-94 64 -49 123 -94 132 -101 13 -10 -42 -12 -264 -12 -267 -1 -279 0 -258 17
12 9 74 58 139 107 l117 90 239 3 238 3 0 1565 0 1564 -475 0 -475 0 0 -1565z
m940 0 l0 -1555 -465 0 -465 0 0 1555 0 1555 465 0 465 0 0 -1555z"/>
<path d="M1455 4326 c-57 -18 -82 -33 -132 -79 -68 -63 -96 -125 -101 -227 -3
-63 -8 -89 -20 -99 -16 -13 -16 -13 1 -7 14 4 22 -4 36 -37 11 -23 31 -57 45
-76 31 -42 33 -57 5 -71 -11 -7 -18 -14 -15 -18 3 -3 16 4 29 16 l22 21 45
-29 c158 -102 368 -59 468 98 57 87 73 205 41 290 -8 20 -2 32 37 75 47 53 81
107 66 107 -5 0 -19 -11 -32 -25 -12 -13 -40 -36 -61 -51 l-39 -26 -59 55
c-96 89 -220 119 -336 83z m52 -121 c28 -14 73 -50 101 -79 28 -29 58 -56 66
-59 9 -4 16 -13 16 -22 0 -9 8 -30 17 -48 l16 -32 10 35 c5 19 16 43 24 53 29
31 49 21 72 -39 27 -72 27 -74 -9 -74 -20 0 -30 5 -30 15 0 8 -9 15 -20 15
-22 0 -37 -53 -25 -89 3 -12 2 -21 -3 -21 -5 0 -12 17 -16 38 -8 52 -21 71
-38 54 -14 -14 -102 -17 -93 -2 3 6 17 10 31 10 14 0 24 6 24 15 0 7 8 19 18
24 9 6 12 11 7 11 -6 0 -16 -5 -22 -11 -6 -6 -21 -9 -34 -7 -33 4 -34 57 -1
74 22 11 21 13 -43 72 -70 66 -123 89 -158 71 -17 -10 -19 -18 -14 -63 8 -82
57 -167 57 -100 0 22 4 25 32 22 29 -3 34 -9 55 -63 13 -32 23 -61 23 -62 0
-2 -16 -3 -36 -3 -31 0 -35 -2 -24 -15 18 -22 -4 -18 -24 4 -10 11 -25 17 -37
14 -17 -5 -19 -2 -14 20 9 33 -30 112 -40 84 -4 -10 -5 -38 -2 -62 4 -42 3
-45 -19 -45 -14 0 -30 10 -40 25 -9 14 -21 25 -26 25 -6 0 -7 -11 -4 -25 5
-18 2 -25 -8 -25 -11 0 -15 17 -18 65 l-3 65 28 0 c20 0 33 -9 48 -32 l21 -33
-4 33 c-4 26 -1 32 15 32 14 0 17 5 13 17 -4 9 -10 36 -13 59 -4 34 -1 46 16
63 27 27 46 27 108 -4z m47 -320 c23 -17 13 -34 -11 -19 -19 12 -29 34 -16 34
4 0 17 -7 27 -15z m176 -60 c-7 -8 -24 -14 -39 -14 l-26 2 28 4 c16 3 31 11
34 19 3 8 8 13 11 10 3 -3 -1 -12 -8 -21z"/>
<path d="M1630 4041 c0 -10 30 -24 37 -17 3 3 2 9 -2 15 -8 13 -35 15 -35 2z"/>
<path d="M1476 4011 c-4 -7 -5 -15 -2 -18 9 -9 19 4 14 18 -4 11 -6 11 -12 0z"/>
<path d="M1760 4005 c0 -8 4 -15 10 -15 5 0 7 7 4 15 -4 8 -8 15 -10 15 -2 0
-4 -7 -4 -15z"/>
<path d="M1485 3960 c3 -5 8 -10 11 -10 2 0 4 5 4 10 0 6 -5 10 -11 10 -5 0
-7 -4 -4 -10z"/>
<path d="M1561 3453 c-17 -16 -31 -37 -32 -48 -4 -51 3 -76 29 -102 l28 -27
-28 -24 c-19 -16 -28 -33 -28 -54 0 -16 -4 -37 -9 -46 -5 -9 -12 -36 -16 -59
-5 -34 -4 -43 8 -43 8 0 18 -10 22 -22 l7 -23 7 25 c7 25 7 25 143 28 124 2
137 1 141 -15 4 -14 5 -13 6 4 1 13 -8 27 -19 33 -17 9 -20 17 -14 46 l6 34
-121 0 -121 0 0 24 c0 44 33 56 152 56 101 0 108 1 108 20 0 18 -7 20 -72 20
-136 1 -188 27 -188 95 0 56 21 65 148 65 105 0 112 1 112 20 0 19 -7 20 -120
20 -117 0 -120 -1 -149 -27z m237 -320 c-3 -16 -16 -18 -108 -18 -92 0 -105 2
-108 18 -3 15 7 17 108 17 101 0 111 -2 108 -17z m-258 -8 c10 -12 10 -15 -4
-15 -9 0 -16 7 -16 15 0 8 2 15 4 15 2 0 9 -7 16 -15z m25 -35 c4 -6 -5 -10
-19 -10 -14 0 -26 -5 -26 -12 0 -6 -2 -9 -5 -6 -3 3 -3 13 1 22 7 18 39 22 49
6z m225 0 c0 -12 -113 -12 -150 0 -17 5 3 8 63 9 52 1 87 -3 87 -9z"/>
<path d="M1929 3092 c9 -7 10 -11 2 -15 -7 -4 -8 -5 0 -3 15 2 13 20 -3 24
-10 3 -10 2 1 -6z"/>
<path d="M1817 2991 c-4 -17 -3 -21 5 -13 5 5 8 16 6 23 -3 8 -7 3 -11 -10z"/>
<path d="M1530 2985 c0 -8 4 -15 10 -15 5 0 7 7 4 15 -4 8 -8 15 -10 15 -2 0
-4 -7 -4 -15z"/>
<path d="M1638 2973 c23 -2 61 -2 85 0 23 2 4 4 -43 4 -47 0 -66 -2 -42 -4z"/>
<path d="M1928 2973 c7 -3 16 -2 19 1 4 3 -2 6 -13 5 -11 0 -14 -3 -6 -6z"/>
<path d="M1709 2859 c-46 -29 -99 -61 -117 -72 -23 -13 -42 -17 -63 -13 -25 5
-30 3 -27 -12 2 -11 14 -18 38 -20 27 -2 49 7 95 38 53 35 61 38 67 22 11 -29
8 -76 -7 -96 -20 -27 -19 -75 3 -99 19 -23 15 -21 -64 29 -61 39 -134 50 -134
19 0 -10 8 -13 28 -9 21 4 53 -11 151 -71 68 -41 129 -75 136 -75 7 0 19 8 28
18 14 16 17 44 17 186 0 96 -4 176 -10 187 -17 30 -51 23 -141 -32z m86 13
c-18 -15 -85 -54 -85 -48 0 3 19 16 43 30 43 26 59 33 42 18z m40 -319 c-6
-27 -23 -29 -51 -7 -18 14 -18 15 4 4 12 -6 27 -8 32 -5 6 3 11 63 12 133 l2
127 4 -115 c1 -63 0 -125 -3 -137z m-75 11 c0 -2 -9 0 -20 6 -11 6 -20 13 -20
16 0 2 9 0 20 -6 11 -6 20 -13 20 -16z"/>
<path d="M1232 2813 c2 -10 10 -18 18 -18 8 0 16 8 18 18 2 12 -3 17 -18 17
-15 0 -20 -5 -18 -17z"/>
<path d="M1312 2793 c2 -10 10 -18 18 -18 8 0 16 8 18 18 2 12 -3 17 -18 17
-15 0 -20 -5 -18 -17z"/>
<path d="M1413 2773 c-18 -7 -16 -53 3 -60 8 -3 22 1 30 9 24 24 -1 62 -33 51z"/>
<path d="M1316 2743 c-14 -15 -5 -43 14 -43 13 0 20 7 20 19 0 19 -23 35 -34
24z"/>
<path d="M1393 2693 c-21 -8 -15 -43 6 -43 11 0 23 5 27 11 8 14 -17 38 -33
32z"/>
<path d="M1639 2450 c-70 -21 -109 -75 -109 -153 0 -82 68 -147 155 -147 53 0
104 27 132 69 43 64 22 176 -41 211 -24 13 -28 13 -36 0 -7 -11 -4 -20 14 -35
53 -45 62 -116 21 -162 l-24 -28 -3 90 -2 90 -5 -90 -6 -90 -35 3 c-19 2 -36
8 -38 12 -2 5 -10 6 -18 3 -11 -4 -14 11 -14 86 0 54 4 91 10 91 6 0 10 -9 10
-20 0 -18 3 -19 21 -10 16 9 19 19 17 47 -3 40 -10 45 -49 33z m-19 -145 c0
-69 3 -86 18 -94 11 -7 12 -11 4 -11 -8 0 -27 14 -44 30 -28 28 -30 36 -26 80
5 47 21 80 39 80 5 0 9 -38 9 -85z"/>
<path d="M1700 2390 c0 -5 5 -10 11 -10 5 0 7 5 4 10 -3 6 -8 10 -11 10 -2 0
-4 -4 -4 -10z"/>
<path d="M1938 2393 c7 -3 16 -2 19 1 4 3 -2 6 -13 5 -11 0 -14 -3 -6 -6z"/>
<path d="M1918 2253 c7 -3 16 -2 19 1 4 3 -2 6 -13 5 -11 0 -14 -3 -6 -6z"/>
<path d="M1634 2090 c-36 -11 -82 -54 -95 -88 -15 -38 -11 -118 6 -132 28 -24
15 -30 -65 -30 -57 0 -80 4 -80 13 0 17 -20 -14 -20 -32 0 -11 3 -11 15 -1 19
16 30 7 21 -16 -4 -10 -13 -14 -26 -11 -11 3 -20 1 -20 -5 0 -6 13 -8 30 -6
17 3 34 0 37 -5 3 -6 1 -7 -5 -3 -7 4 -12 3 -12 -3 0 -21 18 -19 28 4 l11 25
193 2 c192 3 193 3 171 22 -21 19 -21 21 -6 38 9 10 18 41 21 71 3 42 0 58
-20 86 -12 19 -34 42 -48 52 -31 23 -95 31 -136 19z m132 -74 c43 -43 46 -93
8 -143 -24 -31 -28 -33 -87 -33 -70 0 -82 6 -103 45 -25 48 -18 93 20 131 29
29 41 34 81 34 40 0 52 -5 81 -34z"/>
<path d="M1400 1879 c0 -5 5 -7 10 -4 6 3 10 8 10 11 0 2 -4 4 -10 4 -5 0 -10
-5 -10 -11z"/>
<path d="M1925 1750 c3 -5 8 -10 11 -10 2 0 4 5 4 10 0 6 -5 10 -11 10 -5 0
-7 -4 -4 -10z"/>
<path d="M1820 1710 c-13 -8 -12 -10 3 -10 9 0 17 5 17 10 0 12 -1 12 -20 0z"/>
<path d="M1507 1703 c18 -2 50 -2 70 0 21 2 7 4 -32 4 -38 0 -55 -2 -38 -4z"/>
<path d="M1703 1703 c15 -2 39 -2 55 0 15 2 2 4 -28 4 -30 0 -43 -2 -27 -4z"/>
</g>
</svg>
